# xmcd CD database file
#
# Track frame offsets:
#	150
#	23372
#	57278
#	79874
#	99122
#	117171
#	135248
#	153804
#	174805
#	193573
#
# Disc length: 2751 seconds
#
# Revision: 0
# Processed by: cddbd v1.4PL0 Copyright (c) Steve Scherf et al.
# Submitted via: CDex 1.50Beta7
#
DISCID=610abd0a
DTITLE=Annie Lennox - Bare
DYEAR=2003
DGENRE=Rhythmic Soul
TTITLE0=Pavement Cracks
TTITLE1=The Hurting Time
TTITLE2=Honestly
TTITLE3=Wonderful
TTITLE4=Bitter Pill
TTITLE5=Loneliness
TTITLE6=The Saddest Song I've Got
TTITLE7=Erased
TTITLE8=Twisted
TTITLE9=Oh God
EXTD=YEAR: 2003
EXTT0=
EXTT1=
EXTT2=
EXTT3=
EXTT4=
EXTT5=
EXTT6=
EXTT7=
EXTT8=
EXTT9=
PLAYORDER=
